<svg xmlns="http://www.w3.org/2000/svg" width="46" height="44" fill="none"><path fill="#fff" fill-rule="evenodd" d="M23.444 0C10.98 0 .887 10.094.887 22.556c0 9.982 6.457 18.412 15.423 21.4 1.128.198 1.55-.478 1.55-1.07 0-.536-.027-2.313-.027-4.202-5.668 1.044-7.134-1.381-7.585-2.65-.254-.648-1.353-2.65-2.312-3.186-.79-.423-1.917-1.466-.028-1.494 1.776-.029 3.045 1.635 3.468 2.312 2.03 3.411 5.272 2.453 6.57 1.86.197-1.466.789-2.453 1.437-3.017C14.365 31.947 9.12 30 9.12 21.373c0-2.453.874-4.483 2.312-6.062-.225-.564-1.015-2.876.226-5.977 0 0 1.889-.592 6.203 2.312a20.931 20.931 0 0 1 5.639-.761c1.917 0 3.834.253 5.64.76 4.313-2.932 6.202-2.311 6.202-2.311 1.24 3.101.451 5.413.226 5.977 1.438 1.58 2.312 3.581 2.312 6.062 0 8.656-5.273 10.574-10.292 11.138.818.704 1.523 2.058 1.523 4.172 0 3.017-.028 5.442-.028 6.203 0 .593.423 1.297 1.55 1.072A22.594 22.594 0 0 0 46 22.557C46 10.094 35.906 0 23.444 0Z" clip-rule="evenodd"/></svg>