<svg width="46" height="44" viewBox="0 0 46 44" fill="none" xmlns="http://www.w3.org/2000/svg">
<path fill-rule="evenodd" clip-rule="evenodd" d="M23.4436 0C10.9811 0 0.887085 10.094 0.887085 22.5565C0.887085 32.5377 7.34387 40.9682 16.3101 43.9569C17.4379 44.1543 17.8608 43.4776 17.8608 42.8855C17.8608 42.3498 17.8326 40.5734 17.8326 38.6843C12.1653 39.7276 10.6991 37.3028 10.248 36.034C9.99426 35.3855 8.89463 33.3836 7.93598 32.8479C7.1465 32.4249 6.01868 31.3817 7.90778 31.3535C9.68411 31.3253 10.9529 32.9888 11.3758 33.6655C13.4059 37.0772 16.6484 36.1185 17.9454 35.5264C18.1428 34.0603 18.7349 33.0734 19.3834 32.5095C14.3646 31.9456 9.12019 30.0001 9.12019 21.3722C9.12019 18.9192 9.99426 16.8892 11.4322 15.3102C11.2067 14.7463 10.4172 12.4343 11.6578 9.33274C11.6578 9.33274 13.5469 8.74063 17.8608 11.6448C19.6653 11.1373 21.5826 10.8835 23.4999 10.8835C25.4172 10.8835 27.3345 11.1373 29.1391 11.6448C33.453 8.71244 35.3421 9.33274 35.3421 9.33274C36.5827 12.4343 35.7932 14.7463 35.5676 15.3102C37.0056 16.8892 37.8797 18.891 37.8797 21.3722C37.8797 30.0283 32.6071 31.9456 27.5883 32.5095C28.406 33.2144 29.1109 34.5678 29.1109 36.6825C29.1109 39.6994 29.0827 42.1242 29.0827 42.8855C29.0827 43.4776 29.5056 44.1825 30.6334 43.9569C35.1111 42.4452 39.0021 39.5672 41.7587 35.7283C44.5153 31.8892 45.9987 27.2825 46 22.5565C46 10.094 35.906 0 23.4436 0Z" fill="white"/>
</svg>
